<?xml version="1.0"?>
<svg xmlns="http://www.w3.org/2000/svg" xmlns:xlink="http://www.w3.org/1999/xlink" height="512px" viewBox="0 0 937.03902 937" width="512px"><linearGradient id="a"><stop offset="0" stop-color="#fc5c7d"/><stop offset=".129" stop-color="#f35e85"/><stop offset=".343" stop-color="#d9659b"/><stop offset=".616" stop-color="#b070bf"/><stop offset=".934" stop-color="#777ff0"/><stop offset="1" stop-color="#6a82fb"/></linearGradient><linearGradient id="b" gradientTransform="matrix(.999958 0 0 -.999958 0 926.746338)" gradientUnits="userSpaceOnUse" x1="921.4214" x2="921.4214" xlink:href="#a" y1="860.1263" y2="-65.3557"/><linearGradient id="c" gradientTransform="matrix(.999958 0 0 -.999958 0 926.746338)" gradientUnits="userSpaceOnUse" x1="15.6173" x2="15.6173" xlink:href="#a" y1="860.1263" y2="-65.3557"/><linearGradient id="d" gradientTransform="matrix(.999958 0 0 -.999958 0 926.746338)" gradientUnits="userSpaceOnUse" x1="640.3098" x2="640.3098" xlink:href="#a" y1="860.1263" y2="-65.3557"/><linearGradient id="e" gradientTransform="matrix(.999958 0 0 -.999958 0 926.746338)" gradientUnits="userSpaceOnUse" x1="390.4328" x2="390.4328" xlink:href="#a" y1="860.1263" y2="-65.3557"/><linearGradient id="f" gradientTransform="matrix(.999958 0 0 -.999958 0 926.746338)" gradientUnits="userSpaceOnUse" x1="460.7107" x2="460.7107" xlink:href="#a" y1="860.1263" y2="-65.3557"/><linearGradient id="g" gradientTransform="matrix(.999958 0 0 -.999958 0 926.746338)" gradientUnits="userSpaceOnUse" x1="203.0251" x2="203.0251" xlink:href="#a" y1="860.1263" y2="-65.3557"/><linearGradient id="h" gradientTransform="matrix(.999958 0 0 -.999958 0 926.746338)" gradientUnits="userSpaceOnUse" x1="124.9385" x2="124.9385" xlink:href="#a" y1="860.1263" y2="-65.3557"/><linearGradient id="i" gradientTransform="matrix(.999958 0 0 -.999958 0 926.746338)" gradientUnits="userSpaceOnUse" x1="249.877" x2="249.877" xlink:href="#a" y1="860.1263" y2="-65.3557"/><linearGradient id="j" gradientTransform="matrix(.999958 0 0 -.999958 0 926.746338)" gradientUnits="userSpaceOnUse" x1="171.7905" x2="171.7905" xlink:href="#a" y1="860.1263" y2="-65.3557"/><linearGradient id="k" gradientTransform="matrix(.999958 0 0 -.999958 0 926.746338)" gradientUnits="userSpaceOnUse" x1="499.754" x2="499.754" xlink:href="#a" y1="860.1263" y2="-65.3557"/><linearGradient id="l" gradientTransform="matrix(.999958 0 0 -.999958 0 926.746338)" gradientUnits="userSpaceOnUse" x1="624.6925" x2="624.6925" xlink:href="#a" y1="860.1263" y2="-65.3557"/><linearGradient id="m" gradientTransform="matrix(.999958 0 0 -.999958 0 926.746338)" gradientUnits="userSpaceOnUse" x1="577.8406" x2="577.8406" xlink:href="#a" y1="860.1263" y2="-65.3557"/><linearGradient id="n" gradientTransform="matrix(.999958 0 0 -.999958 0 926.746338)" gradientUnits="userSpaceOnUse" x1="546.606" x2="546.606" xlink:href="#a" y1="860.1263" y2="-65.3557"/><linearGradient id="o" gradientTransform="matrix(.999958 0 0 -.999958 0 926.746338)" gradientUnits="userSpaceOnUse" x1="585.6492" x2="585.6492" xlink:href="#a" y1="860.1263" y2="-65.3557"/><linearGradient id="p" gradientTransform="matrix(.999958 0 0 -.999958 0 926.746338)" gradientUnits="userSpaceOnUse" x1="484.1367" x2="484.1367" xlink:href="#a" y1="860.1263" y2="-65.3557"/><linearGradient id="q" gradientTransform="matrix(.999958 0 0 -.999958 0 926.746338)" gradientUnits="userSpaceOnUse" x1="702.7791" x2="702.7791" xlink:href="#a" y1="860.1263" y2="-65.3557"/><path d="m905.765625 327.96875h31.234375v359.183594h-31.234375zm0 0" fill="url(#b)"/><path d="m905.765625 718.386719h31.234375v31.234375h-31.234375zm0 0" fill="url(#b)"/><path d="m0 234.269531h31.234375v156.167969h-31.234375zm0 0" fill="url(#c)"/><path d="m624.667969.0195312h31.234375v31.2343748h-31.234375zm0 0" fill="url(#d)"/><path d="m187.398438.0195312h406.035156v31.2343748h-406.035156zm0 0" fill="url(#e)"/><path d="m15.617188 937.019531h749.597656c8.625 0 15.617187-6.992187 15.617187-15.617187v-93.699219h78.085938c8.621093 0 15.613281-6.992187 15.613281-15.617187v-655.898438h31.234375c8.625 0 15.617187-6.992188 15.617187-15.617188v-62.46875c0-8.621093-6.992187-15.613281-15.617187-15.613281h-874.53125c-8.625 0-15.617187 6.992188-15.617187 15.613281v62.46875c0 8.625 6.992187 15.617188 15.617187 15.617188h31.234375v281.097656h-46.851562c-8.625 0-15.617188 6.992188-15.617188 15.617188v468.5c0 8.625 6.992188 15.617187 15.617188 15.617187zm15.617187-31.234375v-31.230468h290.25l31.234375 31.230468zm718.367187-62.464844h-296.71875c-4.140624 0-8.113281 1.644532-11.039062 4.574219l-35.808594 35.808594v-361.867187l53.316406-53.316407h290.25zm0 62.464844h-321.488281l31.234375-31.234375h290.253906zm-702.75-812.066406h843.296876v31.234375h-843.296876zm46.847657 62.46875h749.601562v640.28125h-62.46875v-343.566406c0-8.625-6.992187-15.617188-15.613281-15.617188h-312.335938c-4.140624.003906-8.113281 1.648438-11.039062 4.578125l-51.425781 51.425781-51.425781-51.425781c-2.929688-2.929687-6.902344-4.574219-11.042969-4.578125h-234.25zm-62.464844 312.332031h290.25l53.316406 53.316407v361.867187l-35.808593-35.808594c-2.929688-2.929687-6.898438-4.574219-11.039063-4.574219h-296.71875zm0 0" fill="url(#f)"/><path d="m78.082031 640.304688h249.867188v31.230468h-249.867188zm0 0" fill="url(#g)"/><path d="m78.082031 577.835938h249.867188v31.234374h-249.867188zm0 0" fill="url(#g)"/><path d="m109.316406 515.367188h31.234375v31.234374h-31.234375zm0 0" fill="url(#h)"/><path d="m171.78125 515.367188h156.167969v31.234374h-156.167969zm0 0" fill="url(#i)"/><path d="m78.082031 702.769531h249.867188v31.234375h-249.867188zm0 0" fill="url(#g)"/><path d="m78.082031 765.234375h187.402344v31.234375h-187.402344zm0 0" fill="url(#j)"/><path d="m484.117188 640.304688h31.234374v31.230468h-31.234374zm0 0" fill="url(#k)"/><path d="m546.582031 640.304688h156.167969v31.230468h-156.167969zm0 0" fill="url(#l)"/><path d="m452.882812 702.769531h249.867188v31.234375h-249.867188zm0 0" fill="url(#m)"/><path d="m452.882812 765.234375h187.402344v31.234375h-187.402344zm0 0" fill="url(#n)"/><path d="m452.882812 530.988281v62.464844c0 8.625 6.992188 15.617187 15.617188 15.617187h234.25c8.625 0 15.617188-6.992187 15.617188-15.617187v-62.464844c0-8.625-6.992188-15.617187-15.617188-15.617187h-234.25c-8.625-.003906-15.617188 6.988281-15.617188 15.617187zm31.234376 15.613281h203.015624v31.234376h-203.015624zm0 0" fill="url(#o)"/><path d="m359.183594 359.203125h-31.234375v-78.082031h-31.234375v78.082031h-31.230469v-156.167969h-31.234375v156.167969h-31.234375v-109.316406h-31.234375v109.316406h-31.230469v31.234375h218.632813zm0 0" fill="url(#i)"/><path d="m484.117188 390.4375c51.75 0 93.699218-41.953125 93.699218-93.703125 0-51.746094-41.949218-93.699219-93.699218-93.699219s-93.699219 41.953125-93.699219 93.699219c.050781 51.730469 41.972656 93.648437 93.699219 93.703125zm36.886718-43.554688-13.820312-34.53125h37.183594c-3.597657 13.851563-11.84375 26.039063-23.363282 34.53125zm23.363282-65.761718h-44.632813v-44.632813c21.851563 5.714844 38.917969 22.777344 44.632813 44.632813zm-75.867188-44.632813v60.246094c.015625 1.984375.414062 3.945313 1.171875 5.78125l22.253906 55.890625c-2.585937.429688-5.191406.695312-7.808593.796875-34.433594.042969-62.378907-27.835937-62.421876-62.265625-.035156-28.472656 19.230469-53.351562 46.804688-60.449219zm0 0" fill="url(#p)"/><path d="m702.75 390.4375c51.75 0 93.699219-41.953125 93.699219-93.703125 0-51.746094-41.949219-93.699219-93.699219-93.699219s-93.699219 41.953125-93.699219 93.699219c.050781 51.730469 41.972657 93.648437 93.699219 93.703125zm15.617188-33.453125v-44.632813h44.632812c-5.714844 21.855469-22.78125 38.917969-44.632812 44.632813zm-15.617188-122.714844c28.398438.105469 53.148438 19.355469 60.25 46.851563h-60.25c-8.625 0-15.617188 6.992187-15.617188 15.613281v60.25c-33.34375-8.582031-53.417968-42.566406-44.835937-75.910156 7.097656-27.578125 31.976563-46.839844 60.453125-46.804688zm0 0" fill="url(#q)"/></svg>
